Coordinates
version=1
nRows=28
nColumns=23
inDegrees=yes

Units are S.I. units (second, meters, Newtons, ...)
If the header above contains a line with 'inDegrees', this indicates whether rotational values are in degrees (yes) or radians (no).

endheader
time	pelvis_tilt	pelvis_list	pelvis_rotation	pelvis_tx	pelvis_ty	pelvis_tz	hip_flexion_r	hip_adduction_r	hip_rotation_r	knee_angle_r	knee_angle_r_beta	ankle_angle_r	subtalar_angle_r	mtp_angle_r	hip_flexion_l	hip_adduction_l	hip_rotation_l	knee_angle_l	knee_angle_l_beta	ankle_angle_l	subtalar_angle_l	mtp_angle_l
     15.00000000	      0.12149541	     -2.65097197	      0.91912067	      2.13438044	      0.86783455	      1.03402680	     24.55269700	      3.10735566	    -10.69401297	     23.29768570	      0.40662132	     -1.10075204	      0.40503656	      0.00000000	    -13.03279652	     -4.73800206	     -9.28309050	     52.68530662	      0.91953207	    -18.24849068	    -14.34446157	      0.00000000
     15.00666667	      0.54497349	     -2.99692596	      0.42487714	      2.13454865	      0.86476005	      1.03511301	     23.98506487	      3.87470529	    -10.03498392	     25.19487257	      0.43973348	     -0.07338948	     -1.38832298	      0.00000000	    -12.11209609	     -5.25215084	     -9.45912512	     56.33414925	      0.98321639	    -17.93284805	    -15.62999577	      0.00000000
     15.01333333	      1.44949268	     -3.54612213	      0.01192769	      2.13478075	      0.86215356	      1.03601703	     22.84386913	      4.75450438	     -9.66463651	     27.12745048	      0.47346333	      1.34922687	     -2.59119089	      0.00000000	    -11.72510416	     -5.99424056	     -9.61288264	     59.81390708	      1.04394962	    -17.74425758	    -16.86139005	      0.00000000
     15.02000000	      1.43536253	     -3.73090677	     -0.74228692	      2.13419928	      0.85806280	      1.03741210	     23.02049535	      5.45765129	     -8.40519516	     29.60015100	      0.51662009	      2.91594485	     -4.50520475	      0.00000000	    -10.10932254	     -6.36391792	     -9.95207149	     63.60765955	      1.11016309	    -17.41921669	    -17.75983006	      0.00000000
     15.02666667	      1.90269035	     -4.11696227	     -1.40196815	      2.13363383	      0.85456534	      1.03859772	     22.58749214	      6.23081211	     -7.54557587	     31.98496328	      0.55824292	      4.73531700	     -5.64902269	      0.00000000	     -9.02628606	     -6.96613086	    -10.23275903	     67.19050040	      1.17269546	    -17.24009911	    -18.60487591	      0.00000000
     15.03333333	      2.92597261	     -4.71798591	     -1.82679565	      2.13310668	      0.85190685	      1.03936589	     21.36517149	      7.04013748	     -7.08047045	     34.06192746	      0.59449278	      6.51825378	     -6.42618975	      0.00000000	     -8.52714672	     -7.78405963	    -10.28198679	     70.53791106	      1.23111880	    -17.24953753	    -19.49438362	      0.00000000
     15.04000000	      2.73580262	     -4.80996244	     -2.69540661	      2.13173617	      0.84751455	      1.04069120	     21.82935143	      7.49338214	     -5.96025539	     36.78885369	      0.64208662	      8.75173560	     -6.95928704	      0.00000000	     -6.46337924	     -8.05079308	    -10.46333819	     74.13698650	      1.29393451	    -17.02649232	    -19.91066051	      0.00000000
     15.04666667	      3.54267177	     -5.35491945	     -3.16416827	      2.13062694	      0.84478363	      1.04138946	     20.78156567	      8.18775185	     -5.35351514	     38.74333367	      0.67619874	     10.71089906	     -7.28338460	      0.00000000	     -5.52545047	     -8.78331909	    -10.33198989	     77.33655636	      1.34977754	    -17.00746089	    -20.44441819	      0.00000000
     15.05333333	      3.38966668	     -5.39744910	     -3.85084002	      2.12896960	      0.84080244	      1.04224254	     21.03285613	      8.28361953	     -4.81315214	     41.16402637	      0.71844779	     12.85137128	     -6.85954623	      0.00000000	     -3.30633991	     -8.94456931	    -10.12298595	     80.62368940	      1.40714884	    -16.70231977	    -20.50088903	      0.00000000
     15.06000000	      3.64842848	     -5.66541662	     -4.29881188	      2.12738694	      0.83777053	      1.04271427	     20.52959475	      8.47488794	     -4.53354204	     43.02724601	      0.75096711	     14.83167302	     -6.27764766	      0.00000000	     -1.50164614	     -9.31564228	     -9.66634003	     83.61746540	      1.45940008	    -16.44509093	    -20.52852196	      0.00000000
     15.06666667	      4.21095293	     -6.08829981	     -4.62682425	      2.12577103	      0.83557100	      1.04299996	     19.42070287	      8.80760817	     -4.23409020	     44.37116054	      0.77442284	     16.52221110	     -6.06639185	      0.00000000	     -0.01644965	     -9.80940306	     -9.06658272	     86.30399776	      1.50628892	    -16.18790808	    -20.53132498	      0.00000000
     15.07333333	      3.96488067	     -6.04802161	     -4.91770673	      2.12395079	      0.83246108	      1.04306193	     19.34437410	      8.36235579	     -4.57920495	     46.03278416	      0.80342365	     18.47566716	     -4.36928124	      0.00000000	      2.60375858	     -9.76715941	     -8.23807378	     88.96990621	      1.55281780	    -15.61896060	    -20.05600693	      0.00000000
     15.08000000	      4.09309056	     -6.25711432	     -5.06895700	      2.12220660	      0.83039747	      1.04303496	     18.51212725	      8.23312559	     -4.81905637	     47.03942035	      0.82099276	     20.04941296	     -3.29505124	      0.00000000	      4.77665467	     -9.98187258	     -7.32204544	     91.26598384	      1.59289191	    -15.02033474	    -19.45315643	      0.00000000
     15.08666667	      4.40655273	     -6.55704798	     -5.19921387	      2.12046006	      0.82912738	      1.04298856	     17.22593661	      8.29187599	     -4.83254181	     47.57784647	      0.83039007	     21.35568983	     -2.80588652	      0.00000000	      6.70708184	    -10.28245102	     -6.41885773	     93.18777655	      1.62643352	    -14.50338081	    -19.03382733	      0.00000000
     15.09333333	      4.19763051	     -6.56218731	     -5.21702059	      2.11881934	      0.82740878	      1.04274654	     16.52688461	      7.73965457	     -5.58980733	     48.22174877	      0.84162829	     22.79440503	     -0.78598762	      0.00000000	      9.34622721	    -10.20551148	     -5.33656375	     94.95588920	      1.65729291	    -13.72080264	    -18.12640984	      0.00000000
     15.10000000	      4.39674424	     -6.74307410	     -5.39010739	      2.11723197	      0.82693197	      1.04279941	     15.06184894	      7.73910231	     -5.49948354	     48.22199027	      0.84163250	     23.81440200	     -0.35127899	      0.00000000	     11.33289607	    -10.35254564	     -4.53032690	     96.21302062	      1.67923399	    -13.20654985	    -17.71658812	      0.00000000
     15.10666667	      4.42280608	     -6.88483417	     -5.53029840	      2.11576270	      0.82670378	      1.04293635	     13.65661737	      7.69616823	     -5.49373326	     47.98665040	      0.83752505	     24.63547080	      0.39610826	      0.00000000	     13.48902301	    -10.48377266	     -3.70755173	     97.18411025	      1.69618270	    -12.54490204	    -17.10536408	      0.00000000
     15.11333333	      4.26851064	     -6.99723389	     -5.54234214	      2.11460784	      0.82650068	      1.04278764	     12.38248947	      7.33076522	     -6.19944735	     47.72202555	      0.83290647	     25.49247567	      2.33248766	      0.00000000	     15.84797052	    -10.59742678	     -2.85841837	     97.92871411	      1.70917849	    -11.56718908	    -15.99026023	      0.00000000
     15.12000000	      4.21788530	     -6.85497957	     -6.00981666	      2.11335960	      0.82725607	      1.04326770	     10.89651205	      7.13829157	     -5.66841923	     47.13752446	      0.82270500	     25.91877564	      2.74752589	      0.00000000	     17.78275305	    -10.48434314	     -2.59272005	     98.06341495	      1.71152947	    -11.07564500	    -15.92674451	      0.00000000
     15.12666667	      4.06708336	     -7.12222127	     -6.19819622	      2.11246486	      0.82818369	      1.04354200	      9.28954408	      7.29204255	     -5.61519599	     46.18467779	      0.80607469	     26.29961693	      3.62827323	      0.00000000	     19.85777092	    -10.88675026	     -2.01586614	     98.10886170	      1.71232266	    -10.00902120	    -15.39283795	      0.00000000
     15.13333333	      4.05792379	     -7.11798782	     -6.62062710	      2.11174166	      0.82991941	      1.04410847	      7.47897621	      7.22951455	     -5.13654599	     45.08249557	      0.78683798	     26.40477452	      4.31444273	      0.00000000	     21.50889351	    -11.02773283	     -1.86552864	     97.62647630	      1.70390345	     -9.09320967	    -15.07084054	      0.00000000
     15.14000000	      4.02016018	     -7.03685342	     -7.15774535	      2.11116202	      0.83212327	      1.04480299	      5.63767114	      7.15047704	     -4.37638798	     43.81005338	      0.76462968	     26.31587146	      4.73211620	      0.00000000	     23.01274512	    -11.13609976	     -1.92311134	     96.78582460	      1.68923131	     -8.18531001	    -15.10538675	      0.00000000
     15.14666667	      3.55888758	     -6.62808156	     -7.80558612	      2.11064435	      0.83415780	      1.04554569	      4.38627708	      6.71834150	     -3.58632121	     42.70019778	      0.74525904	     26.20861159	      5.19631312	      0.00000000	     24.88296485	    -10.92747896	     -2.16589333	     95.64642909	      1.66934511	     -7.30167351	    -15.32944640	      0.00000000
     15.15333333	      3.79297608	     -6.58082654	     -8.40945919	      2.11047593	      0.83765414	      1.04637426	      2.03421671	      6.70064421	     -2.45086735	     40.90308795	      0.71389356	     25.47211577	      5.03068953	      0.00000000	     25.70102156	    -11.15338887	     -2.49775030	     94.09638271	      1.64229169	     -6.32261824	    -15.60583759	      0.00000000
     15.16000000	      3.23433514	     -6.06724826	     -9.10216058	      2.11028965	      0.84029388	      1.04717194	      0.85502242	      6.12446008	     -1.62077289	     39.58750747	      0.69093235	     24.84140636	      5.48845770	      0.00000000	     27.37720470	    -10.91738752	     -2.93831984	     92.36051767	      1.61199513	     -5.38168841	    -15.98148114	      0.00000000
     15.16666667	      3.31938561	     -5.66257152	     -9.69033464	      2.11040665	      0.84421528	      1.04787006	     -1.25492709	      5.60103666	     -0.62732105	     37.73674209	      0.65863040	     23.76267616	      5.38414109	      0.00000000	     28.08118379	    -10.70298579	     -3.42889519	     90.16212352	      1.57362592	     -4.76034145	    -16.69515842	      0.00000000
     15.17333333	      3.12586032	     -5.25478346	    -10.18373697	      2.11064045	      0.84796725	      1.04857106	     -3.06156207	      5.17572201	      0.45068019	     35.82517758	      0.62526730	     22.40789829	      4.87600095	      0.00000000	     29.03917946	    -10.51502632	     -3.82134953	     87.80175101	      1.53242964	     -3.98429201	    -16.89853644	      0.00000000
     15.18000000	      2.72243508	     -4.53591238	    -10.59334882	      2.11101458	      0.85144371	      1.04902756	     -4.41711560	      4.24669630	      0.88531508	     34.19347145	      0.59678866	     21.00299866	      5.07662966	      0.00000000	     30.14774847	     -9.91647750	     -4.22499246	     85.15743543	      1.48627763	     -3.50079598	    -17.43244466	      0.00000000
